<svg id="Layer_1" data-name="Layer 1" xmlns="http://www.w3.org/2000/svg" viewBox="0 0 140.24 116.26"><defs><style>.cls-1{fill:#fff;}</style></defs><title>LuT-1</title><path class="cls-1" d="M236.26,454.52V338.26H376.49V454.52Zm43.87-21a7.85,7.85,0,0,0,.81,1.37c.52.53,1.09,1.29,1.72,1.39a13.05,13.05,0,0,0,9.88-2.1,1.8,1.8,0,0,1,2.14-.25,8.73,8.73,0,0,0,7.57.12,1.61,1.61,0,0,1,1.31.17,4.21,4.21,0,0,0,5,.13,4.51,4.51,0,0,1,1.59-.35,15.1,15.1,0,0,0,1.52-.11c1-.24,1.4-1.11.85-1.85a3.82,3.82,0,0,0-1.94-1.53,4.54,4.54,0,0,1-3.46-3.13,22.3,22.3,0,0,1-.83-4.26c-1-6.91-.16-13.78.42-20.67.53-6.2.83-12.41,1.2-18.62a4.49,4.49,0,0,0-1.47-3.45c-.56-.58-2.07-.73-2.43-.12a7.7,7.7,0,0,0-1.41,3.2c-.3,6.13-.36,12.28-.58,18.41a69.72,69.72,0,0,1-.64,9.49c-1,5.76-1.5,11.48-.26,17.26.09.45,0,1.29-.23,1.39a6.87,6.87,0,0,1-3.12.89c-1.11-.09-1.49-1.35-1.61-2.37-.25-2.05-.37-4.1-.49-6.16-.09-1.58,0-3.18-.15-4.75s-1.32-2.27-3-2.13c-1.4.12-1.81.84-1.91,2.49-.23,4.19-.61,8.36-.9,12.55a1.42,1.42,0,0,1-1.27,1.51c-.86.15-1.65.13-2.11-.76a7.32,7.32,0,0,1-.93-2.09c-.37-2.32-.69-4.66-.86-7-.13-1.75.07-3.52,0-5.27,0-1-.08-2.21-1.42-2.43s-2,.65-2.37,1.74a15,15,0,0,0-.59,2.75c-.33,2.34-.61,4.68-.91,7-.08.63-.16,1.25-.25,1.88a1.21,1.21,0,0,1-.63-.83c-.77-5.52-1.52-11-2.31-16.56a3.75,3.75,0,0,1,1.73-4,15.5,15.5,0,0,0,6.15-7.72c1.41-4.21,2.76-8.45,3.9-12.74a41.19,41.19,0,0,0,1.22-15.32,9.14,9.14,0,0,0-2.83-6,36.93,36.93,0,0,0-5.94-4.15c-3.11-1.82-5.65-1-7.44,2.16a17.71,17.71,0,0,0-1.94,8.45c-.15,4.16-.05,8.33-.12,12.49s-.31,8.58-.33,12.87c0,2.83.21,5.65.36,8.48a1.85,1.85,0,0,1-1.39,2.17,26,26,0,0,1-3.72.72c-1.3.13-2.15.91-2,2.14A2.07,2.07,0,0,0,266,411.6c1.19-.15,2.38-.34,3.56-.55,1.38-.25,1.54-.12,1.53,1.34a4.35,4.35,0,0,0,0,.51c.2,5.05.26,10.11.65,15.15a41.75,41.75,0,0,0,1.55,7c.09.4.58,1,.84,1a12.11,12.11,0,0,0,3.34-.69A16.33,16.33,0,0,0,280.13,433.54Zm70.4-20a13.32,13.32,0,0,0-1.81-2.63,2.54,2.54,0,0,0-2.15-.55c-1.71.66-3.27,1.69-4.95,2.45-3.36,1.51-6.75,2.95-10.14,4.4-4.21,1.8-8.45,3.53-12.64,5.4a19,19,0,0,0-3.79,2.34,1.65,1.65,0,0,0-.38,2.33c.58.76,1.38,1.86,2.11,1.89a9.41,9.41,0,0,0,3.93-1c5.46-2.48,11-4.83,16.55-7,3.36-1.31,6.72-2.55,10.17-3.55A4.67,4.67,0,0,0,350.53,413.54Zm-19.42-20.3c0-3.22-1.61-4.51-3.44-3.66-1.52.7-3.06,1.33-4.56,2.05-3.27,1.59-6.46,3.36-9.81,4.78-1.8.76-3.12,1.55-3.77,3.56a2.47,2.47,0,0,0,.82,2.94,3.32,3.32,0,0,0,2.26.23,9,9,0,0,0,2.14-.84c4.35-1.88,8.7-3.75,13-5.69C329.6,395.79,331,394.53,331.11,393.24Z" transform="translate(-236.26 -338.26)"/><path d="M280.13,433.54a16.33,16.33,0,0,1-2.73,1.79,12.11,12.11,0,0,1-3.34.69c-.26,0-.75-.59-.84-1a41.75,41.75,0,0,1-1.55-7c-.39-5-.45-10.1-.65-15.15a4.35,4.35,0,0,1,0-.51c0-1.46-.15-1.59-1.53-1.34-1.18.21-2.37.4-3.56.55a2.07,2.07,0,0,1-2.27-1.59c-.11-1.23.74-2,2-2.14a26,26,0,0,0,3.72-.72,1.85,1.85,0,0,0,1.39-2.17c-.15-2.83-.38-5.65-.36-8.48,0-4.29.25-8.58.33-12.87s0-8.33.12-12.49a17.71,17.71,0,0,1,1.94-8.45c1.79-3.15,4.33-4,7.44-2.16a36.93,36.93,0,0,1,5.94,4.15,9.14,9.14,0,0,1,2.83,6A41.19,41.19,0,0,1,287.85,386c-1.14,4.29-2.49,8.53-3.9,12.74a15.5,15.5,0,0,1-6.15,7.72,3.75,3.75,0,0,0-1.73,4c.79,5.52,1.54,11,2.31,16.56a1.21,1.21,0,0,0,.63.83c.09-.63.17-1.25.25-1.88.3-2.33.58-4.67.91-7a15,15,0,0,1,.59-2.75c.36-1.09,1.09-1.95,2.37-1.74s1.38,1.43,1.42,2.43c.07,1.75-.13,3.52,0,5.27.17,2.34.49,4.68.86,7a7.32,7.32,0,0,0,.93,2.09c.46.89,1.25.91,2.11.76a1.42,1.42,0,0,0,1.27-1.51c.29-4.19.67-8.36.9-12.55.1-1.65.51-2.37,1.91-2.49,1.65-.14,2.83.63,3,2.13s.06,3.17.15,4.75c.12,2.06.24,4.11.49,6.16.12,1,.5,2.28,1.61,2.37a6.87,6.87,0,0,0,3.12-.89c.25-.1.32-.94.23-1.39-1.24-5.78-.73-11.5.26-17.26a69.72,69.72,0,0,0,.64-9.49c.22-6.13.28-12.28.58-18.41a7.7,7.7,0,0,1,1.41-3.2c.36-.61,1.87-.46,2.43.12a4.49,4.49,0,0,1,1.47,3.45c-.37,6.21-.67,12.42-1.2,18.62-.58,6.89-1.38,13.76-.42,20.67a22.3,22.3,0,0,0,.83,4.26,4.54,4.54,0,0,0,3.46,3.13,3.82,3.82,0,0,1,1.94,1.53c.55.74.1,1.61-.85,1.85a15.1,15.1,0,0,1-1.52.11,4.51,4.51,0,0,0-1.59.35,4.21,4.21,0,0,1-5-.13,1.61,1.61,0,0,0-1.31-.17,8.73,8.73,0,0,1-7.57-.12,1.8,1.8,0,0,0-2.14.25,13.05,13.05,0,0,1-9.88,2.1c-.63-.1-1.2-.86-1.72-1.39A7.85,7.85,0,0,1,280.13,433.54Zm-4.29-31.44.5.11a10.11,10.11,0,0,0,1.24-1.72,63.35,63.35,0,0,0,2.9-7,43.09,43.09,0,0,0,1.91-19.06,25.78,25.78,0,0,0-3.2-9.18,1.6,1.6,0,0,0-1.2-.72c-.38,0-.85.49-1.07.88a4.59,4.59,0,0,0-.51,1.7c-.32,2.95-.77,5.89-.84,8.84q-.19,7.46.05,14.92c.1,3,.72,6,.24,9.1A13.75,13.75,0,0,0,275.84,402.1Z" transform="translate(-236.26 -338.26)"/><path d="M350.53,413.54a4.67,4.67,0,0,1-3.1,4.09c-3.45,1-6.81,2.24-10.17,3.55-5.6,2.16-11.09,4.51-16.55,7a9.41,9.41,0,0,1-3.93,1c-.73,0-1.53-1.13-2.11-1.89a1.65,1.65,0,0,1,.38-2.33,19,19,0,0,1,3.79-2.34c4.19-1.87,8.43-3.6,12.64-5.4,3.39-1.45,6.78-2.89,10.14-4.4,1.68-.76,3.24-1.79,4.95-2.45a2.54,2.54,0,0,1,2.15.55A13.32,13.32,0,0,1,350.53,413.54Z" transform="translate(-236.26 -338.26)"/><path d="M331.11,393.24c-.09,1.29-1.51,2.55-3.34,3.37-4.32,1.94-8.67,3.81-13,5.69a9,9,0,0,1-2.14.84,3.32,3.32,0,0,1-2.26-.23,2.47,2.47,0,0,1-.82-2.94c.65-2,2-2.8,3.77-3.56,3.35-1.42,6.54-3.19,9.81-4.78,1.5-.72,3-1.35,4.56-2.05C329.5,388.73,331.15,390,331.11,393.24Z" transform="translate(-236.26 -338.26)"/><path class="cls-1" d="M275.84,402.1a13.75,13.75,0,0,1,0-2.13c.48-3.06-.14-6.07-.24-9.1q-.25-7.46-.05-14.92c.07-2.95.52-5.89.84-8.84a4.59,4.59,0,0,1,.51-1.7c.22-.39.69-.86,1.07-.88a1.6,1.6,0,0,1,1.2.72,25.78,25.78,0,0,1,3.2,9.18,43.09,43.09,0,0,1-1.91,19.06,63.35,63.35,0,0,1-2.9,7,10.11,10.11,0,0,1-1.24,1.72Z" transform="translate(-236.26 -338.26)"/></svg>